<?xml version="1.0" encoding="UTF-8" standalone="no"?>
<!-- Created with Inkscape (http://www.inkscape.org/) -->

<svg
   version="1.1"
   id="svg1"
   width="2148.2612"
   height="2500"
   viewBox="0 0 2148.2612 2500"
   sodipodi:docname="feather.svg"
   inkscape:version="1.3.2 (091e20e, 2023-11-25)"
   xmlns:inkscape="http://www.inkscape.org/namespaces/inkscape"
   xmlns:sodipodi="http://sodipodi.sourceforge.net/DTD/sodipodi-0.dtd"
   xmlns="http://www.w3.org/2000/svg"
   xmlns:svg="http://www.w3.org/2000/svg">
  <defs
     id="defs1" />
  <sodipodi:namedview
     id="namedview1"
     pagecolor="#ffffff"
     bordercolor="#000000"
     borderopacity="0.25"
     inkscape:showpageshadow="2"
     inkscape:pageopacity="0.0"
     inkscape:pagecheckerboard="0"
     inkscape:deskcolor="#d1d1d1"
     inkscape:zoom="0.08761867"
     inkscape:cx="1363.8646"
     inkscape:cy="1466.5824"
     inkscape:window-width="1512"
     inkscape:window-height="916"
     inkscape:window-x="0"
     inkscape:window-y="38"
     inkscape:window-maximized="1"
     inkscape:current-layer="group-R5">
    <inkscape:page
       x="0"
       y="0"
       inkscape:label="1"
       id="page1"
       width="2148.2612"
       height="2500"
       margin="0"
       bleed="0" />
  </sodipodi:namedview>
  <g
     id="g1"
     inkscape:groupmode="layer"
     inkscape:label="1"
     transform="translate(-925.87195,-750.00006)">
    <g
       id="group-R5">
      <path
         id="path3"
         d="M 21707.7,24202.2 V 7826.7 C 21707.7,6610.7 20722,5625 19506,5625 H 9146.44 c -303.46,0 -591.42,59.8 -852.79,172.8 v 16375.5 c 0,1216 985.68,2201.7 2199.45,2201.7 h 10361.8 c 301.3,0 591.4,-59.8 852.8,-172.8"
         style="fill:#f6d894;fill-opacity:1;fill-rule:nonzero;stroke:none"
         transform="matrix(0.13333333,0,0,-0.13333333,0,4000)" />
      <path
         id="path4"
         d="m 17304.7,7826.7 v 23.7 H 6944.04 v -23.7 c 0,-913.1 556.27,-1696.3 1348.61,-2029.3 261.67,-111.6 550.79,-172 852.71,-172 H 19506 c -607.5,0 -1158.3,247 -1555.4,645.9 -398.9,397.1 -645.9,947.9 -645.9,1555.4"
         style="fill:#db980e;fill-opacity:1;fill-rule:nonzero;stroke:none"
         transform="matrix(0.13333333,0,0,-0.13333333,0,4000)" />
      <path
         id="path5"
         d="m 12695.3,22173.3 v -23.8 H 23056 v 23.8 c 0,913.1 -556.3,1696.3 -1348.6,2029.3 -261.7,111.6 -550.8,172 -852.8,172 H 10494 c 607.5,0 1158.3,-247 1555.4,-645.9 398.9,-397.1 645.9,-947.9 645.9,-1555.4"
         style="fill:#dc8b0e;fill-opacity:1;fill-rule:nonzero;stroke:none"
         transform="matrix(0.13333333,0,0,-0.13333333,0,4000)" />
      <path
         id="path6"
         d="m 17886.7,17270.8 c -533,-478.7 -1221.6,-779.2 -1221.6,-779.2 530,-96.7 890.9,42.2 1134,257.4 -129.1,-692.3 -314.1,-1405.8 -580.6,-2050.6 -892.4,-613.1 -1720.7,-974.8 -1720.7,-974.8 454.5,-83.1 850.1,-84.6 1194.4,-26.4 -1467.7,-2201.7 -2784.5,-3483 -4495.4,-2641.1 -493.8,-688.6 -678.1,-1554.7 -744.5,-2031.1 -24.9,-180.4 -209.2,-292.2 -381.3,-231 -114.8,41.5 -194,151 -189.5,273.3 20.4,567.8 477.2,1525.2 881.9,2266.6 -1184.7,982.3 -582.2,2819.3 -582.2,2819.3 169.9,389.6 367.7,758.1 588.2,1106.9 402.4,-542.9 856.2,-735.4 881.9,-745.2 -342,332.9 -312.6,1067.6 -215.2,1670.9 0,0 0.8,0 0.8,0.7 476.4,585.9 1007.2,1101.6 1547,1551.6 326.2,-548.1 763.4,-733.9 785.3,-742.2 -251.5,245.4 -237.1,778.5 -167.7,1226.2 1301,961.2 2555.1,1543.3 3141.8,1790.2 166.1,69.5 348,-53.6 345.8,-233.3 -6.8,-500.6 -43.8,-1450.4 -202.4,-2508.2"
         style="fill:#c5910c;fill-opacity:1;fill-rule:nonzero;stroke:none"
         transform="matrix(0.13333333,0,0,-0.13333333,0,4000)" />
    </g>
  </g>
</svg>
