<svg width="98" height="28" viewBox="0 0 98 28" fill="none" xmlns="http://www.w3.org/2000/svg">
<path d="M4.93854 7.15234H6.74597V10.3136H5.27876C4.00825 10.3136 3.50677 10.8221 3.50677 12.121V22.0902H0V12.2061C0 8.70461 1.75073 7.15234 4.93854 7.15234Z" fill="#6061F6"/>
<path d="M6.35156 14.6607C6.35156 10.089 9.6262 6.85156 13.9428 6.85156C17.8943 6.85156 21.4507 9.53259 21.1123 15.4032H9.6262C9.90795 17.7741 11.6853 19.4114 14.2334 19.4114C16.0957 19.4114 17.6764 18.5361 18.7768 16.9307L21.0874 18.754C19.6202 20.8698 17.306 22.4221 14.1448 22.4221C9.48444 22.4221 6.35156 19.1492 6.35156 14.6607ZM17.811 12.8887C17.3875 10.7996 15.8902 9.7275 13.9127 9.7275C12.9651 9.70661 12.0383 10.0061 11.2822 10.5776C10.5261 11.1491 9.9851 11.9591 9.7467 12.8763L17.811 12.8887Z" fill="#6061F6"/>
<path d="M22.5234 7.15284H25.628L25.6563 8.96027C26.7018 7.63305 28.5287 6.87109 30.4779 6.87109C34.5145 6.87109 37.9008 10.0323 37.9008 14.6324C37.9008 19.1776 34.5145 22.3672 30.4779 22.3672C28.7059 22.3672 27.0066 21.7452 25.9345 20.6164C25.9895 21.7452 26.0178 22.959 26.0178 24.1161V27.7009H22.5234V7.15284ZM30.0314 19.1492C32.5441 19.1492 34.3763 17.3064 34.3763 14.6324C34.3763 11.923 32.5423 10.089 30.0296 10.089C27.6303 10.089 25.7768 11.7547 25.7768 14.6324C25.7768 17.5101 27.6321 19.1492 30.0314 19.1492Z" fill="#6061F6"/>
<path d="M45.2449 22.4216C41.3785 22.4216 39.043 20.0241 39.043 16.0424V7.15234H42.5427V15.9308C42.5427 18.02 43.5297 19.1487 45.252 19.1487C46.9744 19.1487 47.9614 18.02 47.9614 15.9308V7.15234H51.4611V16.0442C51.454 20.0241 49.1398 22.4216 45.2449 22.4216Z" fill="#6061F6"/>
<path d="M59.4161 6.81445C63.2826 6.81445 65.6181 9.21373 65.6181 13.1936V22.0908H62.1255V13.307C62.1255 11.2179 61.1385 10.0891 59.4161 10.0891C57.6671 10.0891 56.7067 11.2179 56.7067 13.307V22.0908H53.207V13.1936C53.207 9.21373 55.5212 6.81445 59.4161 6.81445Z" fill="#6061F6"/>
<path d="M66.3594 21.6047L73.1053 10.3136H66.8041L67.2844 7.15234H78.292V7.63255L71.5531 18.9219H78.354L77.8472 22.0902H66.3594V21.6047Z" fill="#6061F6"/>
<path d="M78.3203 14.6607C78.3203 10.089 81.6003 6.85156 85.9186 6.85156C89.8684 6.85156 93.4248 9.53259 93.0863 15.4032H81.6003C81.882 17.7741 83.6593 19.4114 86.2074 19.4114C88.0698 19.4114 89.6504 18.5361 90.7508 16.9307L93.0651 18.7664C91.5978 20.8822 89.2836 22.4345 86.1224 22.4345C81.4585 22.4221 78.3203 19.1492 78.3203 14.6607ZM89.7851 12.8763C89.3616 10.7872 87.866 9.7151 85.8867 9.7151C84.936 9.69286 84.0059 9.99325 83.2477 10.5673C82.4896 11.1414 81.9483 11.9552 81.7119 12.8763H89.7851Z" fill="#6061F6"/>
<path d="M94.5 0.294922H97.9997V22.0904H94.5V0.294922Z" fill="#6061F6"/>
</svg>
