<svg width="207" height="40" viewBox="0 0 207 40" fill="none" xmlns="http://www.w3.org/2000/svg">
<path d="M48.3753 28.0128L47.2879 25.0931H40.7684L39.6913 28.0128H36.4135L42.263 12.96H45.8551L51.6943 28.0128H48.3701H48.3753ZM41.7837 22.3163H46.2571L44.0307 16.2778L41.7837 22.3163Z" fill="#111111"/>
<path d="M57.9045 28.2785C56.3223 28.2785 55.0494 27.8497 54.0959 26.9973C53.1425 26.1449 52.6683 25.0015 52.6683 23.5825V16.8906H55.5287V23.1843C55.5287 23.8938 55.7451 24.4604 56.178 24.8892C56.6109 25.318 57.1881 25.5272 57.9045 25.5272C58.6209 25.5272 59.1981 25.3129 59.631 24.8892C60.0639 24.4655 60.2804 23.8938 60.2804 23.1843V16.8906H63.1407V23.5825C63.1407 24.9964 62.6614 26.1296 61.7028 26.9922C60.7442 27.8497 59.4764 28.2836 57.8994 28.2836L57.9045 28.2785Z" fill="#111111"/>
<path d="M74.2109 12.3015H77.0712V28.0128H74.2109V26.6806C73.2317 27.7474 72.0103 28.2782 70.5569 28.2782C68.9953 28.2782 67.6915 27.7218 66.6453 26.604C65.599 25.4912 65.0734 24.1028 65.0734 22.449C65.0734 20.7952 65.599 19.4119 66.6453 18.294C67.6915 17.1813 68.9953 16.6198 70.5569 16.6198C72.0206 16.6198 73.2369 17.1507 74.2109 18.2073V12.2964V12.3015ZM71.1032 25.5321C71.9897 25.5321 72.7318 25.236 73.3245 24.649C73.9171 24.062 74.2109 23.327 74.2109 22.4541C74.2109 21.5813 73.9171 20.8513 73.3245 20.2592C72.7318 19.6671 71.9897 19.3762 71.1032 19.3762C70.2168 19.3762 69.4849 19.6722 68.8974 20.2592C68.3099 20.8462 68.0161 21.5813 68.0161 22.4541C68.0161 23.327 68.3099 24.0569 68.8974 24.649C69.4849 25.2411 70.2219 25.5321 71.1032 25.5321Z" fill="#111111"/>
<path d="M82.5083 14.7415C82.1579 15.0835 81.7301 15.252 81.2251 15.252C80.72 15.252 80.2871 15.0835 79.9418 14.7415C79.5965 14.3995 79.4213 13.981 79.4213 13.4858C79.4213 12.9907 79.5965 12.5671 79.9418 12.2302C80.2871 11.8933 80.72 11.7197 81.2251 11.7197C81.7301 11.7197 82.163 11.8882 82.5083 12.2302C82.8536 12.5722 83.0289 12.9907 83.0289 13.4858C83.0289 13.981 82.8536 14.3995 82.5083 14.7415ZM79.7923 28.0129V16.8905H82.6527V28.0129H79.7923Z" fill="#111111"/>
<path d="M92.3004 19.4786H89.2803V24.1031C89.2803 25.0526 89.7957 25.5324 90.8316 25.5324C91.2697 25.5324 91.7593 25.4099 92.3056 25.1597V27.8038C91.7077 28.1254 91.012 28.2836 90.208 28.2836C88.9557 28.2836 88.0074 27.9518 87.3735 27.2883C86.7396 26.6247 86.42 25.7161 86.42 24.5676V19.4888H84.6368V16.9009H86.42V14.0781H89.2803V16.9009H92.3004V19.4888V19.4786Z" fill="#111111"/>
<path d="M97.1243 14.7415C96.7739 15.0835 96.3461 15.252 95.841 15.252C95.336 15.252 94.9031 15.0835 94.5578 14.7415C94.2125 14.3995 94.0372 13.981 94.0372 13.4858C94.0372 12.9907 94.2125 12.5671 94.5578 12.2302C94.9031 11.8933 95.336 11.7197 95.841 11.7197C96.3461 11.7197 96.779 11.8882 97.1243 12.2302C97.4696 12.5722 97.6448 12.9907 97.6448 13.4858C97.6448 13.981 97.4696 14.3995 97.1243 14.7415ZM94.4083 28.0129V16.8905H97.2686V28.0129H94.4083Z" fill="#111111"/>
<path d="M109.658 26.6043C108.504 27.7171 107.071 28.2785 105.355 28.2785C103.639 28.2785 102.206 27.7222 101.046 26.6043C99.8867 25.4864 99.3095 24.1031 99.3095 22.4493C99.3095 20.7955 99.8867 19.4122 101.046 18.2944C102.206 17.1816 103.639 16.6201 105.355 16.6201C107.071 16.6201 108.504 17.1765 109.658 18.2944C110.813 19.4071 111.39 20.7955 111.39 22.4493C111.39 24.1031 110.813 25.4864 109.658 26.6043ZM105.355 25.5273C106.246 25.5273 106.978 25.2363 107.561 24.6493C108.143 24.0623 108.432 23.3324 108.432 22.4493C108.432 21.5663 108.143 20.8363 107.561 20.2493C106.978 19.6623 106.246 19.3714 105.355 19.3714C104.463 19.3714 103.737 19.6674 103.149 20.2544C102.562 20.8414 102.268 21.5765 102.268 22.4493C102.268 23.3222 102.562 24.0521 103.149 24.6442C103.737 25.2363 104.474 25.5273 105.355 25.5273Z" fill="#111111"/>
<path d="M119.863 16.625C121.187 16.625 122.254 17.018 123.053 17.8041C123.851 18.5902 124.253 19.6366 124.253 20.9433V28.018H121.383V21.8621C121.383 21.1118 121.156 20.5094 120.713 20.0551C120.264 19.606 119.667 19.3814 118.925 19.3814C118.141 19.3814 117.512 19.6162 117.028 20.0807C116.544 20.5452 116.301 21.1577 116.301 21.9182V28.0231H113.441V16.9006H116.301V18.1359C117.203 17.1354 118.394 16.6352 119.873 16.6352L119.863 16.625Z" fill="#111111"/>
<path d="M135.308 16.8906H138.169V28.0131H135.308V26.6809C134.324 27.7477 133.108 28.2785 131.654 28.2785C130.093 28.2785 128.784 27.7222 127.737 26.6043C126.691 25.4915 126.166 24.1031 126.166 22.4493C126.166 20.7955 126.691 19.4122 127.737 18.2944C128.784 17.1816 130.088 16.6201 131.654 16.6201C133.118 16.6201 134.334 17.151 135.308 18.2076V16.8855V16.8906ZM132.201 25.5273C133.092 25.5273 133.829 25.2312 134.422 24.6442C135.014 24.0572 135.308 23.3222 135.308 22.4493C135.308 21.5765 135.014 20.8465 134.422 20.2544C133.829 19.6674 133.092 19.3714 132.201 19.3714C131.309 19.3714 130.582 19.6674 129.995 20.2544C129.407 20.8414 129.113 21.5765 129.113 22.4493C129.113 23.3222 129.407 24.0521 129.995 24.6442C130.582 25.2363 131.319 25.5273 132.201 25.5273Z" fill="#111111"/>
<path d="M140.89 28.0131V12.3018H143.75V28.0131H140.89Z" fill="#111111"/>
<path d="M25.0237 36.3689C24.9516 36.7211 24.8743 37.0733 24.8021 37.4255C24.7712 37.5736 24.7557 37.7573 24.7248 37.936C24.2249 37.8543 23.6941 37.6859 23.2303 37.5991C22.4675 37.4562 21.7047 37.3286 20.9368 37.2061C19.9576 37.0529 18.9681 36.9202 17.9838 36.7977C20.4112 36.4047 22.8231 35.93 25.2247 35.3838C25.1577 35.7105 25.0907 36.0371 25.0186 36.3638L25.0237 36.3689Z" fill="#FEFEFE"/>
<path d="M25.8329 33.1939C19.2825 34.7558 12.6084 35.7359 5.88281 36.1238C5.87251 33.7962 5.83128 31.4686 5.76943 29.141C5.90858 29.0338 7.41347 28.7582 8.64005 29.5443C9.09873 29.8403 9.71718 29.8965 10.0728 29.5443C10.4954 29.1257 10.4129 28.554 10.0728 28.1252C9.35642 27.2269 7.39285 26.7624 5.70759 27.1299C5.65605 25.4454 5.5942 23.7661 5.5169 22.0816C6.44457 22.0867 7.28462 22.2501 8.06284 22.8014C8.51121 23.1127 9.18635 22.8779 9.44919 22.4441C9.7481 21.9438 9.53165 21.3874 9.08843 21.071C8.03191 20.3308 6.70741 20.0807 5.43444 20.0756C5.34167 18.2074 5.23344 16.3392 5.11491 14.471C5.27467 14.5067 5.43444 14.5527 5.58905 14.6088C5.59936 14.619 5.80551 14.7109 5.83128 14.7211C5.94466 14.7824 6.05289 14.8538 6.16111 14.9202C6.18173 14.9355 6.19719 14.9457 6.21265 14.9559C6.25388 14.9916 6.29511 15.0274 6.33634 15.0631C6.42911 15.1499 6.52187 15.2418 6.60433 15.3387C6.96509 15.742 7.666 15.7063 8.03707 15.3387C8.44421 14.9355 8.40298 14.3281 8.03707 13.9197C7.25886 13.052 6.1405 12.5415 4.98607 12.4292C4.9603 12.0821 4.94484 11.7351 4.91907 11.388C11.0365 9.68819 16.7365 6.71744 21.6377 2.7207C22.9107 10.6325 24.1888 18.5443 25.4618 26.451L26.0184 29.9016C26.1163 30.5192 26.2142 31.1317 26.3173 31.7494C26.3379 31.8616 26.374 32.0811 26.4101 32.3057C26.4771 32.7039 26.2297 33.0867 25.838 33.1888L25.8329 33.1939Z" fill="#FEFEFE"/>
<path d="M26.8945 18.5598C26.8739 19.7848 26.843 21.0048 26.8172 22.2298L24.7145 9.17792C24.5857 8.38674 24.4568 7.59556 24.3331 6.79927C25.1577 6.58489 26.4513 5.89069 27.2398 5.57422C27.2398 5.57422 26.9358 16.222 26.8945 18.5547V18.5598Z" fill="#FEFEFE"/>
<path d="M29.0127 3.98147C28.9715 3.29238 28.1005 3.11373 27.5285 3.38426C26.5699 3.83345 25.0341 4.53275 24.0136 4.81349C23.7972 3.47614 23.5859 2.14389 23.3694 0.806546C23.2818 0.270585 22.385 -0.484864 21.2667 0.423717C16.0151 4.69609 10.2326 7.98331 3.65644 9.66266C2.90399 9.85662 2.82153 10.4436 2.87822 11.1889C2.9143 11.6891 2.94007 12.1842 2.97615 12.6845C2.62569 12.8121 2.2907 12.9805 1.98148 13.2051C0.0694481 14.5833 -0.615996 17.2069 0.62605 19.2589C1.00742 19.8816 1.5331 20.4176 2.15155 20.8106C2.00209 20.9025 1.85263 20.9995 1.71348 21.1118C0.785815 21.8468 0.249828 22.9851 0.131293 24.1438C0.0127573 25.3229 0.476592 26.4663 1.22903 27.3596C1.55372 27.7424 1.96086 28.0793 2.39893 28.3447C0.368364 30.4324 0.72397 33.9953 3.86258 35.5878C3.86258 36.0421 3.86774 36.4913 3.87289 36.9456C3.88835 38.0481 4.83664 38.1911 5.21286 38.1758C5.70246 38.1502 6.89297 38.1349 7.01151 38.1349C11.1654 38.1349 15.3245 38.4055 19.4371 39.0027C20.4473 39.1507 21.4522 39.314 22.4572 39.4978C22.9777 39.5948 23.4983 39.6918 24.0188 39.7938C24.4362 39.8755 24.8794 40.0184 25.3124 39.998C26.5235 39.9368 26.6111 38.6403 26.8018 37.7266C27.0079 36.7465 27.2089 35.7665 27.4151 34.7864C28.6726 34.3526 28.5798 32.9029 28.5798 32.8366C28.7087 27.9976 28.8375 23.1587 28.92 18.3197C28.9612 15.9002 28.9921 13.4807 29.0076 11.0613C29.023 8.80512 29.1622 6.64596 29.0076 3.99168L29.0127 3.98147ZM2.11547 17.7021C2.0794 17.5796 2.04848 17.4571 2.02271 17.3294C2.01755 17.3039 2.0124 17.2937 2.0124 17.2784C2.0124 17.2631 2.0124 17.2427 2.0124 17.212C2.00725 17.0793 2.00209 16.9517 2.0124 16.819C2.0124 16.768 2.01755 16.7169 2.02271 16.6659C2.02271 16.6506 2.02786 16.6301 2.03301 16.5995C2.06394 16.4719 2.08971 16.3443 2.13094 16.2218C2.14124 16.1963 2.2237 15.9768 2.2237 15.9666C2.27524 15.8594 2.32678 15.7573 2.38862 15.6552C2.45047 15.5531 2.51231 15.4561 2.58446 15.3592C2.60508 15.3438 2.74938 15.1754 2.76484 15.155C2.8473 15.0682 2.93492 14.9916 3.02253 14.9151C3.02253 14.9151 3.06891 14.8844 3.12045 14.8487C3.21322 16.2984 3.30083 17.7429 3.37298 19.1925C3.31629 19.1619 3.26475 19.1364 3.20806 19.1007C3.15653 19.0649 3.09983 19.0292 3.0483 18.9935C3.03799 18.9884 3.03284 18.9833 3.02253 18.9731C2.92461 18.8863 2.83184 18.8046 2.73907 18.7127C2.72361 18.6923 2.58446 18.5341 2.55869 18.5137C2.4247 18.335 2.30616 18.1359 2.20824 17.9369C2.21339 17.9369 2.12063 17.7174 2.11547 17.6868V17.7021ZM2.29585 25.3229C2.24947 25.1953 2.20824 25.0626 2.17732 24.9299C2.16701 24.8788 2.1567 24.8227 2.1464 24.7716C2.1464 24.7563 2.1464 24.7308 2.14124 24.6951C2.14124 24.593 2.13094 24.496 2.14124 24.3939C2.14124 24.3276 2.1464 24.2612 2.15155 24.1948C2.15155 24.1846 2.15155 24.1744 2.1567 24.1591C2.18247 24.0264 2.21339 23.8988 2.25462 23.7661C2.27524 23.6997 2.29585 23.6385 2.32162 23.5772C2.28039 23.6589 2.28555 23.6487 2.33708 23.5364C2.38862 23.4292 2.44531 23.3271 2.50716 23.225C2.70815 22.8983 3.00191 22.6023 3.36267 22.4083C3.4039 22.3879 3.46059 22.3624 3.52244 22.3368C3.58428 23.812 3.64097 25.2872 3.68736 26.7624C3.54305 26.6909 3.39875 26.599 3.22352 26.4765C2.93492 26.2825 2.62569 25.9303 2.41439 25.5424C2.38347 25.4812 2.35255 25.4199 2.32162 25.3586C2.35255 25.4403 2.34739 25.4301 2.30616 25.3127L2.29585 25.3229ZM3.79043 33.1939C3.76466 33.1684 3.74405 33.1377 3.72343 33.1122C3.72343 33.1071 3.71313 33.0969 3.70282 33.0816C3.58428 32.9029 3.47606 32.7192 3.37813 32.5303C3.35752 32.4946 3.35237 32.4793 3.34721 32.4691C3.34721 32.4588 3.34206 32.4435 3.3266 32.4027C3.29568 32.3108 3.2596 32.2138 3.23383 32.122C3.20806 32.025 3.18229 31.9331 3.16168 31.8361C3.15137 31.7902 3.14106 31.7391 3.13076 31.6932C3.13076 31.683 3.13076 31.6728 3.1256 31.6677C3.10499 31.4737 3.09983 31.2797 3.11014 31.0858C3.11014 31.0449 3.1153 30.999 3.12045 30.9582C3.14106 30.851 3.16168 30.7489 3.1926 30.6468C3.21322 30.5702 3.23898 30.4988 3.26991 30.4273C3.28021 30.4069 3.33175 30.3048 3.34721 30.2793C3.38844 30.2078 3.43483 30.1415 3.48121 30.0751C3.49667 30.0649 3.6049 29.9373 3.63067 29.9118C3.65128 29.8913 3.72859 29.8301 3.76982 29.7893C3.79559 30.9428 3.82135 32.0913 3.83682 33.2449C3.82135 33.2296 3.80589 33.2143 3.79043 33.199V33.1939ZM25.0238 36.3637C24.9516 36.7159 24.8743 37.0681 24.8021 37.4203C24.7712 37.5683 24.7558 37.7521 24.7248 37.9307C24.2249 37.8491 23.6941 37.6806 23.2303 37.5939C22.4675 37.4509 21.7048 37.3233 20.9369 37.2008C19.9576 37.0477 18.9681 36.915 17.9838 36.7925C20.4112 36.3994 22.8231 35.9247 25.2247 35.3786C25.1577 35.7052 25.0907 36.0319 25.0186 36.3586L25.0238 36.3637ZM25.8329 33.1939C19.2825 34.7558 12.6084 35.7359 5.88284 36.1238C5.87253 33.7962 5.83131 31.4686 5.76946 29.141C5.90861 29.0338 7.4135 28.7582 8.64008 29.5442C9.09876 29.8403 9.71721 29.8964 10.0728 29.5442C10.4954 29.1257 10.413 28.554 10.0728 28.1252C9.35645 27.2269 7.39288 26.7624 5.70762 27.1299C5.65608 25.4454 5.59423 23.7661 5.51693 22.0816C6.4446 22.0867 7.28465 22.2501 8.06286 22.8013C8.51124 23.1127 9.18637 22.8779 9.44921 22.444C9.74813 21.9438 9.53167 21.3874 9.08845 21.071C8.03194 20.3308 6.70744 20.0807 5.43447 20.0756C5.3417 18.2074 5.23347 16.3392 5.11494 14.471C5.2747 14.5067 5.43447 14.5527 5.58908 14.6088C5.59939 14.619 5.80554 14.7109 5.83131 14.7211C5.94469 14.7824 6.05292 14.8538 6.16114 14.9202C6.18176 14.9355 6.19722 14.9457 6.21268 14.9559C6.25391 14.9916 6.29514 15.0274 6.33637 15.0631C6.42914 15.1499 6.5219 15.2418 6.60436 15.3387C6.96512 15.742 7.66603 15.7063 8.0371 15.3387C8.44424 14.9355 8.40301 14.3281 8.0371 13.9197C7.25888 13.052 6.14053 12.5415 4.9861 12.4292C4.96033 12.0821 4.94487 11.735 4.9191 11.3879C11.0366 9.68818 16.7366 6.71743 21.6378 2.72069C22.9107 10.6325 24.1888 18.5443 25.4618 26.451L26.0184 29.9016C26.1163 30.5192 26.2143 31.1317 26.3173 31.7493C26.3379 31.8616 26.374 32.0811 26.4101 32.3057C26.4771 32.7039 26.2297 33.0867 25.838 33.1888L25.8329 33.1939ZM26.8946 18.5596C26.8739 19.7847 26.843 21.0046 26.8172 22.2297L24.7145 9.17774C24.5857 8.38656 24.4568 7.59538 24.3332 6.7991C25.1577 6.58471 26.4513 5.89051 27.2399 5.57404C27.2399 5.57404 26.9358 16.2218 26.8946 18.5545V18.5596Z" fill="#111111"/>
<path d="M21.1894 19.0396C20.9008 18.5547 20.2875 18.4271 19.803 18.6823C17.5457 19.8614 15.2214 20.9078 12.8455 21.8215C12.7837 21.3978 12.7682 20.969 12.7991 20.5199C12.8352 19.9788 12.3095 19.5194 11.789 19.5194C11.2118 19.5194 10.815 19.9788 10.7789 20.5199C10.7119 21.505 10.8356 22.5004 11.15 23.4345C11.3097 23.9143 11.8612 24.3277 12.392 24.1338C15.2832 23.0772 18.1023 21.8317 20.8286 20.4076C21.3131 20.1575 21.4574 19.4888 21.1894 19.0345V19.0396Z" fill="#ED5D40"/>
<path d="M19.8649 12.4036C19.5608 11.8881 18.9836 11.8319 18.4785 12.0463C17.2674 12.5618 16.046 13.057 14.8142 13.5317C14.1855 13.7767 13.5516 14.0166 12.9177 14.2514C12.6239 14.3586 12.3302 14.4658 12.0364 14.573C12.0158 14.5832 11.9952 14.5883 11.9745 14.5934C11.9488 14.3739 11.9179 14.1544 11.8921 13.9349C11.8251 13.399 11.4746 12.9345 10.882 12.9345C10.3872 12.9345 9.79968 13.3939 9.87183 13.9349C9.93368 14.4403 10.0007 14.9405 10.0625 15.4458C10.1398 16.0686 10.279 16.6658 10.9799 16.8546C11.4901 16.9925 12.0415 16.7015 12.5054 16.5331C12.9692 16.3646 13.4331 16.1962 13.8969 16.0226C15.7831 15.3182 17.6488 14.5628 19.5041 13.7767C20.004 13.5623 20.1174 12.8324 19.8649 12.4036Z" fill="#FF7ACF"/>
<path d="M20.9162 26.0324C19.2258 26.5173 17.5766 27.1145 15.9687 27.8189C15.2574 28.1303 14.5565 28.4672 13.8659 28.8194C13.8453 28.5233 13.8299 28.2273 13.8092 27.9312C13.7732 27.3901 13.3712 26.9307 12.7991 26.9307C12.2786 26.9307 11.7529 27.3901 11.789 27.9312C11.8251 28.457 11.856 28.9878 11.8921 29.5136C11.9333 30.1363 12.0724 30.6927 12.6703 31.004C13.2063 31.2848 13.7938 31.1163 14.2988 30.8611C14.7833 30.6212 15.2523 30.3609 15.7367 30.1312C17.5766 29.243 19.4938 28.5335 21.4574 27.972C22.7046 27.6147 22.1737 25.6802 20.9214 26.0375L20.9162 26.0324Z" fill="#FFD100"/>
<rect x="151.75" y="7" width="55" height="26" rx="8" fill="#ED5D40"/>
<path d="M164.982 25V14.57H169.364C169.952 14.57 170.461 14.682 170.89 14.906C171.329 15.1207 171.665 15.424 171.898 15.816C172.141 16.208 172.262 16.6653 172.262 17.188C172.262 17.7293 172.127 18.21 171.856 18.63C171.595 19.0407 171.217 19.3533 170.722 19.568L170.708 19.232C171.119 19.3813 171.469 19.5913 171.758 19.862C172.057 20.1327 172.285 20.45 172.444 20.814C172.603 21.1687 172.682 21.5513 172.682 21.962C172.682 22.8953 172.383 23.6373 171.786 24.188C171.198 24.7293 170.395 25 169.378 25H164.982ZM166.102 23.95H169.378C170.041 23.95 170.568 23.7773 170.96 23.432C171.361 23.0773 171.562 22.592 171.562 21.976C171.562 21.3693 171.361 20.8887 170.96 20.534C170.568 20.17 170.041 19.988 169.378 19.988H166.102V23.95ZM166.102 18.98H169.28C169.84 18.98 170.288 18.8167 170.624 18.49C170.969 18.1633 171.142 17.7433 171.142 17.23C171.142 16.7073 170.969 16.3107 170.624 16.04C170.288 15.76 169.84 15.62 169.28 15.62H166.102V18.98ZM177.671 25.168C176.971 25.168 176.336 25 175.767 24.664C175.207 24.3187 174.764 23.8473 174.437 23.25C174.11 22.6527 173.947 21.976 173.947 21.22C173.947 20.464 174.106 19.7967 174.423 19.218C174.74 18.63 175.17 18.168 175.711 17.832C176.262 17.496 176.878 17.328 177.559 17.328C178.1 17.328 178.581 17.4307 179.001 17.636C179.43 17.832 179.794 18.1027 180.093 18.448C180.392 18.784 180.62 19.1667 180.779 19.596C180.938 20.016 181.017 20.45 181.017 20.898C181.017 20.9913 181.012 21.0987 181.003 21.22C180.994 21.332 180.98 21.4487 180.961 21.57H174.619V20.59H180.359L179.855 21.01C179.939 20.4967 179.878 20.0393 179.673 19.638C179.477 19.2273 179.192 18.9053 178.819 18.672C178.446 18.4293 178.026 18.308 177.559 18.308C177.092 18.308 176.658 18.4293 176.257 18.672C175.865 18.9147 175.557 19.2553 175.333 19.694C175.109 20.1233 175.02 20.6367 175.067 21.234C175.02 21.8313 175.114 22.354 175.347 22.802C175.59 23.2407 175.916 23.5813 176.327 23.824C176.747 24.0667 177.195 24.188 177.671 24.188C178.222 24.188 178.684 24.0573 179.057 23.796C179.43 23.5347 179.734 23.208 179.967 22.816L180.863 23.292C180.714 23.628 180.485 23.9407 180.177 24.23C179.869 24.51 179.5 24.7387 179.071 24.916C178.651 25.084 178.184 25.168 177.671 25.168ZM185.458 25.084C184.786 25.084 184.268 24.888 183.904 24.496C183.54 24.104 183.358 23.544 183.358 22.816V18.546H181.972V17.496H182.322C182.64 17.496 182.892 17.3933 183.078 17.188C183.265 16.9733 183.358 16.7073 183.358 16.39V15.76H184.408V17.496H186.06V18.546H184.408V22.816C184.408 23.068 184.446 23.292 184.52 23.488C184.595 23.6747 184.721 23.824 184.898 23.936C185.085 24.048 185.332 24.104 185.64 24.104C185.715 24.104 185.804 24.0993 185.906 24.09C186.009 24.0807 186.098 24.0713 186.172 24.062V25C186.06 25.028 185.934 25.0467 185.794 25.056C185.654 25.0747 185.542 25.084 185.458 25.084ZM189.769 25.168C189.293 25.168 188.869 25.0793 188.495 24.902C188.122 24.7153 187.828 24.4633 187.613 24.146C187.399 23.8287 187.291 23.4647 187.291 23.054C187.291 22.662 187.375 22.3073 187.543 21.99C187.711 21.6633 187.973 21.388 188.327 21.164C188.682 20.94 189.135 20.7813 189.685 20.688L192.625 20.198V21.15L189.937 21.598C189.396 21.6913 189.004 21.864 188.761 22.116C188.528 22.368 188.411 22.6667 188.411 23.012C188.411 23.348 188.542 23.6327 188.803 23.866C189.074 24.0993 189.419 24.216 189.839 24.216C190.353 24.216 190.801 24.1087 191.183 23.894C191.566 23.67 191.865 23.3713 192.079 22.998C192.294 22.6247 192.401 22.2093 192.401 21.752V19.848C192.401 19.4 192.238 19.036 191.911 18.756C191.585 18.476 191.16 18.336 190.637 18.336C190.18 18.336 189.779 18.4527 189.433 18.686C189.088 18.91 188.831 19.204 188.663 19.568L187.711 19.05C187.851 18.7327 188.071 18.4433 188.369 18.182C188.677 17.9207 189.027 17.7153 189.419 17.566C189.811 17.4073 190.217 17.328 190.637 17.328C191.188 17.328 191.673 17.4353 192.093 17.65C192.523 17.8647 192.854 18.1633 193.087 18.546C193.33 18.9193 193.451 19.3533 193.451 19.848V25H192.401V23.502L192.555 23.656C192.425 23.936 192.219 24.1927 191.939 24.426C191.669 24.65 191.347 24.832 190.973 24.972C190.609 25.1027 190.208 25.168 189.769 25.168Z" fill="#111111"/>
</svg>
