<?xml version="1.0" encoding="UTF-8" standalone="no"?>
<!-- Created with Inkscape (http://www.inkscape.org/) -->

<svg
   width="73.405548mm"
   height="83.096855mm"
   viewBox="0 0 73.405548 83.096855"
   version="1.1"
   id="svg1"
   sodipodi:docname="orange.svg"
   inkscape:version="1.3.2 (091e20e, 2023-11-25)"
   xmlns:inkscape="http://www.inkscape.org/namespaces/inkscape"
   xmlns:sodipodi="http://sodipodi.sourceforge.net/DTD/sodipodi-0.dtd"
   xmlns="http://www.w3.org/2000/svg"
   xmlns:svg="http://www.w3.org/2000/svg">
  <sodipodi:namedview
     id="namedview1"
     pagecolor="#ffffff"
     bordercolor="#000000"
     borderopacity="0.25"
     inkscape:showpageshadow="2"
     inkscape:pageopacity="0.0"
     inkscape:pagecheckerboard="0"
     inkscape:deskcolor="#d1d1d1"
     inkscape:document-units="mm"
     inkscape:zoom="0.57329746"
     inkscape:cx="164.8359"
     inkscape:cy="227.63052"
     inkscape:window-width="752"
     inkscape:window-height="892"
     inkscape:window-x="761"
     inkscape:window-y="39"
     inkscape:window-maximized="0"
     inkscape:current-layer="g187" />
  <defs
     id="defs1" />
  <g
     inkscape:label="Layer 1"
     inkscape:groupmode="layer"
     id="layer1"
     transform="translate(-12.598967,137.66013)">
    <g
       id="g187"
       transform="matrix(0.23108213,-0.1288619,0.1288619,0.23108213,-448.25702,-443.16653)">
      <g
         id="g189"
         transform="rotate(1.6355421,1995.6156,-42209.099)">
        <path
           id="path96"
           d="m 16931.5,5764.3 c -131.6,131.6 -357.5,119.1 -357.5,119.1 0,0 -12.4,-225.8 119.2,-357.4 131.6,-131.6 357.4,-119.2 357.4,-119.2 0,0 12.5,225.9 -119.1,357.5"
           style="fill:#2c7d38;fill-opacity:1;fill-rule:nonzero;stroke:none"
           transform="matrix(0.13333333,0,0,-0.13333333,0,2666.6667)" />
        <path
           id="path97"
           d="m 17041.6,5215.5 h -120.8 c 0,224.3 182.5,406.8 406.8,406.8 v -120.7 c -157.7,0 -286,-128.3 -286,-286.1"
           style="fill:#5b3c31;fill-opacity:1;fill-rule:nonzero;stroke:none"
           transform="matrix(0.13333333,0,0,-0.13333333,0,2666.6667)" />
        <path
           id="path98"
           d="m 17973.1,4315.9 c 0,564.6 -457.7,1022.4 -1022.4,1022.4 -564.8,0 -1022.5,-457.8 -1022.5,-1022.4 0,-564.7 457.7,-1022.5 1022.5,-1022.5 564.7,0 1022.4,457.8 1022.4,1022.5"
           style="fill:#f3ac0e;fill-opacity:1;fill-rule:nonzero;stroke:none"
           transform="matrix(0.13333333,0,0,-0.13333333,0,2666.6667)" />
        <path
           id="path99"
           d="m 16950.7,3293.4 c -564.8,0 -1022.5,457.8 -1022.5,1022.5 v 0 c 0,-564.7 457.7,-1022.5 1022.5,-1022.5 v 0 m -1022.5,1025.4 c 0,0.1 0,0.2 0,0.4 0,-0.2 0,-0.3 0,-0.4 m 0,1.6 c 0,0.1 0,0.3 0,0.4 0,-0.2 0,-0.3 0,-0.4 m 0,1.3 c 0,0.2 0,0.5 0,0.8 0,-0.3 0,-0.5 0,-0.8 m 0,1.4 c 0,0.3 0,0.7 0,1 0,-0.3 0,-0.7 0,-1 m 0,1.7 c 0,0.3 0,0.6 0,0.9 0,-0.3 0,-0.6 0,-0.9 m 0.1,1.7 c 0,0.3 0,0.6 0,0.9 0,-0.3 0,-0.6 0,-0.9 m 0,1.7 c 0,0.2 0,0.6 0,0.8 0,-0.3 0,-0.5 0,-0.8 m 0,1.7 c 0,0.2 0,0.5 0,0.8 0,-0.3 0,-0.6 0,-0.8 m 0,1.8 c 0,0.2 0,0.4 0,0.6 0,-0.2 0,-0.4 0,-0.6 m 0,1.6 c 0.1,0.2 0.1,0.5 0.1,0.7 0,-0.2 0,-0.5 -0.1,-0.7 m 0.1,1.7 c 0,0.2 0,0.4 0,0.6 0,-0.2 0,-0.4 0,-0.6 m 0,1.7 c 0,0.2 0,0.4 0,0.5 0,-0.1 0,-0.3 0,-0.5 m 0,1.6 c 0,0.2 0.1,0.4 0.1,0.6 0,-0.2 -0.1,-0.4 -0.1,-0.6 m 0.1,1.5 c 0,0.3 0,0.5 0,0.7 0,-0.2 0,-0.4 0,-0.7 m 0,1.7 c 0,0.2 0,0.4 0,0.6 0,-0.2 0,-0.4 0,-0.6 m 0.1,1.6 c 0,0.3 0,0.5 0,0.7 0,-0.2 0,-0.4 0,-0.7 m 0,1.7 c 0,0.2 0,0.4 0,0.6 0,-0.2 0,-0.4 0,-0.6 m 0.1,1.6 c 0,0.3 0,0.4 0,0.7 0,-0.2 0,-0.5 0,-0.7 m 0,1.8 c 0,0.2 0,0.3 0,0.5 0,-0.2 0,-0.3 0,-0.5 m 0.1,1.7 c 0,0.1 0,0.2 0,0.4 0,-0.1 0,-0.3 0,-0.4 m 0,1.6 c 0,0.2 0,0.3 0,0.4 0,-0.1 0,-0.2 0,-0.4 m 0.1,1.7 c 0,0.1 0,0.2 0,0.4 0,-0.2 0,-0.3 0,-0.4 m 0,1.7 c 0,0.1 0,0.2 0,0.3 0,-0.1 0,-0.2 0,-0.3 m 0.1,1.6 c 0,0.1 0,0.2 0,0.3 0,-0.1 0,-0.2 0,-0.3 m 0.1,1.7 c 0,0.1 0,0.2 0,0.2 0,-0.1 0,-0.1 0,-0.2 m 0,1.7 c 0,0.1 0,0.1 0,0.1 v -0.1 m 0.1,1.7 v 0.1 -0.1 m 0.1,1.6 v 0.1 -0.1 m 0.1,3.3 v 0 0"
           style="fill:#f3c680;fill-opacity:1;fill-rule:nonzero;stroke:none"
           transform="matrix(0.13333333,0,0,-0.13333333,0,2666.6667)" />
        <path
           id="path100"
           d="m 16939.8,5338.3 c 3.2,9.9 7,19.6 10.9,29.2 v -29.2 c -3.6,0 -7.3,0 -10.9,0"
           style="fill:#5a3627;fill-opacity:1;fill-rule:nonzero;stroke:none"
           transform="matrix(0.13333333,0,0,-0.13333333,0,2666.6667)" />
        <path
           id="path101"
           d="m 16950.7,3293.4 c -564.8,0 -1022.5,457.8 -1022.5,1022.5 0,0.9 0,1.9 0,2.9 0,0.1 0,0.2 0,0.4 0,0.4 0,0.8 0,1.2 0,0.1 0,0.2 0,0.4 0,0.3 0,0.6 0,0.9 0,0.3 0,0.5 0,0.8 0,0.2 0,0.4 0,0.6 0,0.3 0,0.7 0,1 0,0.2 0,0.5 0,0.7 0,0.3 0,0.6 0,0.9 0.1,0.3 0.1,0.5 0.1,0.8 0,0.3 0,0.6 0,0.9 0,0.3 0,0.5 0,0.8 0,0.3 0,0.5 0,0.8 0,0.3 0,0.6 0,0.9 0,0.2 0,0.5 0,0.8 0,0.3 0,0.6 0,1 0,0.2 0,0.4 0,0.6 0,0.3 0,0.7 0,1 0.1,0.2 0.1,0.5 0.1,0.7 0,0.3 0,0.6 0,1 0,0.2 0,0.4 0,0.6 0,0.4 0,0.7 0,1.1 0,0.2 0,0.4 0,0.5 0,0.4 0,0.7 0,1.1 0,0.2 0.1,0.4 0.1,0.6 0,0.3 0,0.6 0,0.9 0,0.3 0,0.5 0,0.7 0,0.4 0,0.7 0,1 0,0.2 0,0.4 0,0.6 0,0.3 0.1,0.7 0.1,1 0,0.3 0,0.5 0,0.7 0,0.3 0,0.7 0,1 0,0.2 0,0.4 0,0.6 0,0.3 0,0.7 0.1,1 0,0.2 0,0.5 0,0.7 0,0.3 0,0.8 0,1.1 0,0.2 0,0.3 0,0.5 0,0.4 0,0.8 0.1,1.2 0,0.1 0,0.3 0,0.4 0,0.4 0,0.8 0,1.2 0,0.2 0,0.3 0,0.4 0,0.4 0.1,0.9 0.1,1.3 0,0.1 0,0.2 0,0.4 0,0.4 0,0.8 0,1.3 0,0.1 0,0.2 0,0.3 0.1,0.5 0.1,0.9 0.1,1.3 0,0.1 0,0.2 0,0.3 0,0.5 0,0.9 0.1,1.4 0,0.1 0,0.1 0,0.2 0,0.5 0,1 0,1.5 v 0.1 c 0.1,0.6 0.1,1.1 0.1,1.6 v 0.1 c 0,0.5 0.1,1 0.1,1.5 v 0.1 c 0,1.1 0.1,2.1 0.1,3.2 v 0 c 26.3,537.5 467.6,965.8 1010.3,971.5 0.1,0.1 0.1,0.2 0.1,0.3 3.6,0 7.3,0 10.9,0 V 3293.4"
           style="fill:#ed9413;fill-opacity:1;fill-rule:nonzero;stroke:none"
           transform="matrix(0.13333333,0,0,-0.13333333,0,2666.6667)" />
        <path
           id="path102"
           d="m 16780.1,5463.5 c -0.1,0 -0.2,0.1 -0.3,0.2 0.1,-0.1 0.2,-0.2 0.3,-0.2 m -0.8,0.4 c -0.2,0.1 -0.4,0.2 -0.5,0.3 0.1,-0.1 0.3,-0.2 0.5,-0.3 m -0.6,0.3 c -28.9,15.1 -56.8,34 -81.5,57.8 24.7,-23.8 52.6,-42.7 81.5,-57.8 m -81.7,58.1 c -0.2,0.1 -0.3,0.3 -0.5,0.4 0.2,-0.1 0.3,-0.3 0.5,-0.4 m -0.8,0.8 c -0.2,0.2 -0.4,0.3 -0.6,0.5 0.2,-0.2 0.4,-0.3 0.6,-0.5 m -1.2,1.1 c -0.1,0.1 -0.2,0.2 -0.3,0.3 0.1,-0.1 0.2,-0.2 0.3,-0.3 m -0.8,0.8 c -0.1,0.1 -0.2,0.2 -0.3,0.2 0.1,0 0.2,-0.1 0.3,-0.2"
           style="fill:#f3c680;fill-opacity:1;fill-rule:nonzero;stroke:none"
           transform="matrix(0.13333333,0,0,-0.13333333,0,2666.6667)" />
        <path
           id="path103"
           d="m 16950.7,5412.4 c -50.2,6.8 -112.5,21.1 -170.6,51.1 -0.1,0 -0.2,0.1 -0.3,0.2 -0.2,0 -0.4,0.1 -0.5,0.2 -0.2,0.1 -0.4,0.2 -0.5,0.3 -0.1,0 -0.1,0 -0.1,0 -28.9,15.1 -56.8,34 -81.5,57.8 -0.1,0.1 -0.1,0.2 -0.2,0.3 -0.2,0.1 -0.3,0.3 -0.5,0.4 -0.1,0.1 -0.2,0.3 -0.3,0.4 -0.2,0.2 -0.4,0.3 -0.6,0.5 -0.2,0.2 -0.4,0.4 -0.6,0.6 -0.1,0.1 -0.2,0.2 -0.3,0.3 -0.1,0.1 -0.3,0.3 -0.5,0.5 -0.1,0.1 -0.2,0.2 -0.3,0.2 -0.2,0.3 -0.5,0.6 -0.7,0.8 v 0 c -110.7,110.6 -119.5,287.9 -119.5,341.5 0,10.2 0.3,15.9 0.3,15.9 0,0 5.8,0.3 15.9,0.3 53.7,0 230.9,-8.8 341.6,-119.4 6.8,-6.8 13.1,-14 19.2,-21.3 v -330.6"
           style="fill:#306f37;fill-opacity:1;fill-rule:nonzero;stroke:none"
           transform="matrix(0.13333333,0,0,-0.13333333,0,2666.6667)" />
      </g>
    </g>
  </g>
</svg>
