<?xml version="1.0" encoding="UTF-8" standalone="no"?>
<!-- Created with Inkscape (http://www.inkscape.org/) -->

<svg
   width="86.059219mm"
   height="91.708015mm"
   viewBox="0 0 86.059219 91.708015"
   version="1.1"
   id="svg1"
   sodipodi:docname="watermelon.svg"
   inkscape:version="1.3.2 (091e20e, 2023-11-25)"
   xmlns:inkscape="http://www.inkscape.org/namespaces/inkscape"
   xmlns:sodipodi="http://sodipodi.sourceforge.net/DTD/sodipodi-0.dtd"
   xmlns="http://www.w3.org/2000/svg"
   xmlns:svg="http://www.w3.org/2000/svg">
  <sodipodi:namedview
     id="namedview1"
     pagecolor="#ffffff"
     bordercolor="#000000"
     borderopacity="0.25"
     inkscape:showpageshadow="2"
     inkscape:pageopacity="0.0"
     inkscape:pagecheckerboard="0"
     inkscape:deskcolor="#d1d1d1"
     inkscape:document-units="mm"
     inkscape:zoom="0.2102413"
     inkscape:cx="449.48352"
     inkscape:cy="439.97064"
     inkscape:window-width="752"
     inkscape:window-height="892"
     inkscape:window-x="782"
     inkscape:window-y="39"
     inkscape:window-maximized="0"
     inkscape:current-layer="layer1" />
  <defs
     id="defs1" />
  <g
     inkscape:label="Layer 1"
     inkscape:groupmode="layer"
     id="layer1"
     transform="translate(-82.190797,-75.480747)">
    <g
       id="g179"
       transform="matrix(0.17220727,0.20087059,-0.20087059,0.17220727,62.030913,-177.76261)">
      <path
         id="path33"
         d="m 7635.41,14674.8 c 815.04,0 1478.1,663.1 1478.1,1478.1 H 6157.33 c 0,-815 663.06,-1478.1 1478.08,-1478.1"
         style="fill:#2c7d38;fill-opacity:1;fill-rule:nonzero;stroke:none"
         transform="matrix(0.13333333,0,0,-0.13333333,0,2666.6667)" />
      <path
         id="path34"
         d="m 6295.28,16152.9 c 0,-740.2 599.99,-1340.2 1340.13,-1340.2 740.13,0 1340.14,600 1340.14,1340.2 H 6295.28"
         style="fill:#f14737;fill-opacity:1;fill-rule:nonzero;stroke:none"
         transform="matrix(0.13333333,0,0,-0.13333333,0,2666.6667)" />
      <path
         id="path35"
         d="m 6636.85,15860.6 c 0,25.3 -46.01,108.7 -46.01,108.7 0,0 -46,-83.4 -46,-108.7 0,-25.4 20.6,-46.1 46,-46.1 25.4,0 46.01,20.7 46.01,46.1"
         style="fill:#5b3c31;fill-opacity:1;fill-rule:nonzero;stroke:none"
         transform="matrix(0.13333333,0,0,-0.13333333,0,2666.6667)" />
      <path
         id="path36"
         d="m 6985.04,15860.6 c 0,25.3 -46,108.7 -46,108.7 0,0 -46,-83.4 -46,-108.7 0,-25.4 20.59,-46.1 46,-46.1 25.41,0 46,20.7 46,46.1"
         style="fill:#5b3c31;fill-opacity:1;fill-rule:nonzero;stroke:none"
         transform="matrix(0.13333333,0,0,-0.13333333,0,2666.6667)" />
      <path
         id="path37"
         d="m 7333.22,15860.6 c 0,25.3 -46,108.7 -46,108.7 0,0 -46,-83.4 -46,-108.7 0,-25.4 20.59,-46.1 46,-46.1 25.4,0 46,20.7 46,46.1"
         style="fill:#5b3c31;fill-opacity:1;fill-rule:nonzero;stroke:none"
         transform="matrix(0.13333333,0,0,-0.13333333,0,2666.6667)" />
      <path
         id="path38"
         d="m 7681.41,15860.6 c 0,25.3 -46,108.7 -46,108.7 0,0 -45.99,-83.4 -45.99,-108.7 0,-25.4 20.59,-46.1 45.99,-46.1 25.42,0 46,20.7 46,46.1"
         style="fill:#5b3c31;fill-opacity:1;fill-rule:nonzero;stroke:none"
         transform="matrix(0.13333333,0,0,-0.13333333,0,2666.6667)" />
      <path
         id="path39"
         d="m 8029.61,15860.6 c 0,25.3 -46,108.7 -46,108.7 0,0 -46,-83.4 -46,-108.7 0,-25.4 20.6,-46.1 46,-46.1 25.41,0 46,20.7 46,46.1"
         style="fill:#5b3c31;fill-opacity:1;fill-rule:nonzero;stroke:none"
         transform="matrix(0.13333333,0,0,-0.13333333,0,2666.6667)" />
      <path
         id="path40"
         d="m 8377.79,15860.6 c 0,25.3 -46,108.7 -46,108.7 0,0 -45.99,-83.4 -45.99,-108.7 0,-25.4 20.59,-46.1 45.99,-46.1 25.4,0 46,20.7 46,46.1"
         style="fill:#5b3c31;fill-opacity:1;fill-rule:nonzero;stroke:none"
         transform="matrix(0.13333333,0,0,-0.13333333,0,2666.6667)" />
      <path
         id="path41"
         d="m 6985.04,15523.7 c 0,25.4 -46,108.7 -46,108.7 0,0 -46,-83.3 -46,-108.7 0,-25.4 20.59,-46 46,-46 25.41,0 46,20.6 46,46"
         style="fill:#5b3c31;fill-opacity:1;fill-rule:nonzero;stroke:none"
         transform="matrix(0.13333333,0,0,-0.13333333,0,2666.6667)" />
      <path
         id="path42"
         d="m 7333.22,15523.7 c 0,25.4 -46,108.7 -46,108.7 0,0 -46,-83.3 -46,-108.7 0,-25.4 20.59,-46 46,-46 25.4,0 46,20.6 46,46"
         style="fill:#5b3c31;fill-opacity:1;fill-rule:nonzero;stroke:none"
         transform="matrix(0.13333333,0,0,-0.13333333,0,2666.6667)" />
      <path
         id="path43"
         d="m 7681.41,15523.7 c 0,25.4 -46,108.7 -46,108.7 0,0 -45.99,-83.3 -45.99,-108.7 0,-25.4 20.59,-46 45.99,-46 25.42,0 46,20.6 46,46"
         style="fill:#5b3c31;fill-opacity:1;fill-rule:nonzero;stroke:none"
         transform="matrix(0.13333333,0,0,-0.13333333,0,2666.6667)" />
      <path
         id="path44"
         d="m 8029.61,15523.7 c 0,25.4 -46,108.7 -46,108.7 0,0 -46,-83.3 -46,-108.7 0,-25.4 20.6,-46 46,-46 25.41,0 46,20.6 46,46"
         style="fill:#5b3c31;fill-opacity:1;fill-rule:nonzero;stroke:none"
         transform="matrix(0.13333333,0,0,-0.13333333,0,2666.6667)" />
      <path
         id="path45"
         d="m 7333.22,15180.6 c 0,25.4 -46,108.8 -46,108.8 0,0 -46,-83.4 -46,-108.8 0,-25.4 20.59,-45.9 46,-45.9 25.4,0 46,20.5 46,45.9"
         style="fill:#5b3c31;fill-opacity:1;fill-rule:nonzero;stroke:none"
         transform="matrix(0.13333333,0,0,-0.13333333,0,2666.6667)" />
      <path
         id="path46"
         d="m 7681.41,15180.6 c 0,25.4 -46,108.8 -46,108.8 0,0 -45.99,-83.4 -45.99,-108.8 0,-25.4 20.59,-45.9 45.99,-45.9 25.42,0 46,20.5 46,45.9"
         style="fill:#5b3c31;fill-opacity:1;fill-rule:nonzero;stroke:none"
         transform="matrix(0.13333333,0,0,-0.13333333,0,2666.6667)" />
      <path
         id="path47"
         d="m 8029.61,15180.6 c 0,25.4 -46,108.8 -46,108.8 0,0 -46,-83.4 -46,-108.8 0,-25.4 20.6,-45.9 46,-45.9 25.41,0 46,20.5 46,45.9"
         style="fill:#5b3c31;fill-opacity:1;fill-rule:nonzero;stroke:none"
         transform="matrix(0.13333333,0,0,-0.13333333,0,2666.6667)" />
      <path
         id="path48"
         d="m 8377.79,15523.7 c 0,25.4 -46,108.7 -46,108.7 0,0 -45.99,-83.3 -45.99,-108.7 0,-25.4 20.59,-46 45.99,-46 25.4,0 46,20.6 46,46"
         style="fill:#5b3c31;fill-opacity:1;fill-rule:nonzero;stroke:none"
         transform="matrix(0.13333333,0,0,-0.13333333,0,2666.6667)" />
      <path
         id="path49"
         d="m 8725.98,15860.6 c 0,25.3 -46,108.7 -46,108.7 0,0 -46.01,-83.4 -46.01,-108.7 0,-25.4 20.6,-46.1 46.01,-46.1 25.4,0 46,20.7 46,46.1"
         style="fill:#5b3c31;fill-opacity:1;fill-rule:nonzero;stroke:none"
         transform="matrix(0.13333333,0,0,-0.13333333,0,2666.6667)" />
      <path
         id="path152"
         d="m 6184.68,15869 v 0 0 m -0.44,2.3 h -0.01 0.01 m -0.44,2.2 c 0,0.1 -0.01,0.1 -0.02,0.1 l 0.02,-0.1 m -0.86,4.5 c -0.01,0.1 -0.01,0.1 -0.02,0.2 0.01,-0.1 0.01,-0.1 0.02,-0.2 m -0.85,4.6 v 0 0 m -0.83,4.5 c -0.01,0.1 -0.01,0.1 -0.02,0.1 l 0.02,-0.1 m -0.41,2.3 c -0.02,0.1 -0.03,0.1 -0.04,0.2 0,0 0.03,-0.2 0.04,-0.2 m -0.41,2.3 h -0.01 0.01 m -0.41,2.2 c 0,0.1 -0.01,0.1 -0.01,0.1 l 0.01,-0.1 m -0.8,4.6 c 0,0 -0.01,0 -0.02,0.1 l 0.02,-0.1 m -0.39,2.2 -0.01,0.1 0.01,-0.1 m -0.39,2.3 v 0 0 m -0.39,2.3 c -0.01,0 -0.02,0.1 -0.03,0.1 0.01,0 0.02,-0.1 0.03,-0.1 m -0.38,2.3 c -0.01,0 -0.01,0 -0.02,0.1 l 0.02,-0.1 m -0.38,2.3 c -0.01,0 -0.02,0.1 -0.03,0.1 0.01,-0.1 0.01,-0.1 0.03,-0.1 m -0.75,4.5 h -0.01 0.01 m -0.37,2.3 -0.01,0.1 0.01,-0.1 m -0.73,4.6 h -0.01 0.01 m -0.72,4.5 c -0.03,0.2 -0.05,0.4 -0.08,0.6 0.03,-0.2 0.05,-0.4 0.08,-0.6 m -0.35,2.3 c -0.02,0.1 -0.03,0.3 -0.05,0.3 0.02,-0.1 0.03,-0.1 0.05,-0.3 m -0.35,2.3 c -0.01,0.1 -0.02,0.1 -0.02,0.2 0.01,-0.1 0,-0.1 0.02,-0.2 m -0.34,2.3 c -0.03,0.2 -0.07,0.5 -0.1,0.7 0.03,-0.3 0.06,-0.5 0.1,-0.7 m -0.35,2.3 c -0.03,0.2 -0.06,0.4 -0.1,0.7 0.04,-0.3 0.07,-0.5 0.1,-0.7 m -0.34,2.3 c -0.02,0.1 -0.04,0.3 -0.06,0.4 0.02,-0.1 0.04,-0.3 0.06,-0.4 m -0.33,2.3 c -0.03,0.2 -0.06,0.4 -0.09,0.6 0.03,-0.2 0.05,-0.4 0.09,-0.6 m -0.33,2.3 c -0.02,0.1 -0.04,0.3 -0.06,0.4 0.02,-0.1 0.04,-0.3 0.06,-0.4 m -0.33,2.3 c -0.03,0.2 -0.06,0.4 -0.09,0.6 0.04,-0.2 0.06,-0.4 0.09,-0.6 m -0.33,2.3 c -0.02,0.1 -0.05,0.4 -0.07,0.5 0.03,-0.2 0.05,-0.3 0.07,-0.5 m -0.32,2.3 c -0.02,0.2 -0.06,0.4 -0.08,0.6 0.03,-0.2 0.05,-0.4 0.08,-0.6 m -0.31,2.3 c -0.02,0.1 -0.04,0.2 -0.06,0.4 0.02,-0.2 0.04,-0.3 0.06,-0.4 m -0.32,2.3 c 0,0 -0.01,0.1 -0.02,0.2 0.01,-0.1 0.02,-0.2 0.02,-0.2 m -0.31,2.3 c 0,0.1 -0.02,0.2 -0.03,0.2 0.02,-0.1 0.02,-0.1 0.03,-0.2 m -0.3,2.3 c -0.02,0.1 -0.03,0.2 -0.04,0.3 0.01,-0.1 0.02,-0.2 0.04,-0.3 m -0.31,2.3 c -0.01,0.1 -0.02,0.2 -0.03,0.3 0.01,-0.1 0.02,-0.2 0.03,-0.3 m -0.3,2.3 c -0.02,0.2 -0.04,0.4 -0.07,0.6 0.03,-0.2 0.05,-0.4 0.07,-0.6 m -0.29,2.3 c -0.02,0.2 -0.05,0.4 -0.07,0.5 0.03,-0.2 0.04,-0.3 0.07,-0.5 m -0.29,2.3 c -0.03,0.3 -0.06,0.5 -0.09,0.7 0.03,-0.2 0.06,-0.4 0.09,-0.7 m -0.29,2.3 c -0.02,0.2 -0.05,0.4 -0.07,0.6 0.03,-0.2 0.04,-0.4 0.07,-0.6 m -0.29,2.4 c -0.02,0.1 -0.05,0.4 -0.07,0.6 0.03,-0.3 0.04,-0.4 0.07,-0.6 m -0.28,2.3 c -0.01,0.1 -0.03,0.2 -0.04,0.3 0.01,-0.1 0.03,-0.2 0.04,-0.3 m -0.28,2.3 c -0.01,0.1 -0.03,0.2 -0.04,0.3 0.02,-0.1 0.02,-0.2 0.04,-0.3 m -0.27,2.3 c -0.02,0.1 -0.03,0.2 -0.04,0.3 0.01,-0.1 0.02,-0.2 0.04,-0.3 m -0.28,2.3 c -0.01,0.2 -0.03,0.3 -0.04,0.4 0.01,-0.1 0.03,-0.2 0.04,-0.4 m -0.26,2.3 c -0.02,0.2 -0.05,0.5 -0.08,0.7 0.03,-0.3 0.05,-0.4 0.08,-0.7 m -0.27,2.3 c -0.01,0.2 -0.03,0.4 -0.05,0.5 0.02,-0.2 0.03,-0.3 0.05,-0.5 m -0.26,2.4 c -0.01,0.1 -0.02,0.2 -0.04,0.3 0.02,-0.1 0.03,-0.2 0.04,-0.3 m -0.25,2.3 c -0.02,0.2 -0.05,0.5 -0.08,0.6 0.03,-0.2 0.05,-0.4 0.08,-0.6 m -0.26,2.3 c -0.02,0.2 -0.05,0.5 -0.07,0.7 0.02,-0.2 0.05,-0.5 0.07,-0.7 m -0.24,2.3 c -0.03,0.2 -0.06,0.5 -0.08,0.7 0.03,-0.3 0.05,-0.4 0.08,-0.7 m -0.25,2.4 c -0.02,0.1 -0.03,0.2 -0.04,0.4 0.01,-0.2 0.02,-0.3 0.04,-0.4 m -0.24,2.3 c -0.03,0.2 -0.06,0.6 -0.09,0.9 0.03,-0.3 0.06,-0.7 0.09,-0.9 m -0.24,2.3 c -0.03,0.2 -0.05,0.4 -0.07,0.7 0.02,-0.3 0.04,-0.5 0.07,-0.7 m -0.24,2.3 c -0.02,0.2 -0.03,0.4 -0.05,0.6 0.02,-0.2 0.03,-0.4 0.05,-0.6 m -0.23,2.4 c -0.01,0.1 -0.03,0.2 -0.04,0.4 0.01,-0.2 0.03,-0.3 0.04,-0.4 m -0.23,2.3 c -0.02,0.2 -0.05,0.5 -0.07,0.8 0.03,-0.3 0.05,-0.5 0.07,-0.8 m -0.22,2.3 c -0.02,0.3 -0.05,0.5 -0.07,0.7 0.02,-0.2 0.05,-0.4 0.07,-0.7 m -0.22,2.3 c -0.02,0.2 -0.03,0.4 -0.04,0.5 0.01,-0.1 0.02,-0.3 0.04,-0.5 m -0.22,2.4 c -0.02,0.2 -0.03,0.3 -0.05,0.5 0.02,-0.2 0.03,-0.3 0.05,-0.5 m -0.21,2.3 c -0.02,0.3 -0.05,0.5 -0.07,0.8 0.02,-0.3 0.04,-0.5 0.07,-0.8 m -0.21,2.3 c -0.04,0.5 -0.09,1.1 -0.13,1.5 0.04,-0.5 0.08,-0.9 0.13,-1.5 m -0.21,2.3 c -0.04,0.6 -0.09,1.1 -0.13,1.6 0.04,-0.5 0.09,-1 0.13,-1.6 m -0.2,2.4 c -0.05,0.6 -0.1,1.2 -0.15,1.8 0.05,-0.6 0.1,-1.2 0.15,-1.8 m -0.2,2.3 c -0.03,0.5 -0.07,0.9 -0.11,1.3 0.04,-0.4 0.08,-0.8 0.11,-1.3 m -0.19,2.4 c -0.03,0.3 -0.05,0.5 -0.07,0.8 0.02,-0.3 0.04,-0.5 0.07,-0.8 m -0.19,2.3 c -0.02,0.3 -0.05,0.6 -0.07,0.8 0.02,-0.3 0.04,-0.5 0.07,-0.8 m -0.19,2.4 c -0.02,0.2 -0.03,0.3 -0.05,0.5 0.02,-0.2 0.03,-0.3 0.05,-0.5 m -0.19,2.3 c -0.03,0.4 -0.06,0.8 -0.09,1.2 0.03,-0.4 0.06,-0.8 0.09,-1.2 m -0.18,2.3 c -0.02,0.4 -0.05,0.8 -0.08,1.1 0.03,-0.4 0.05,-0.7 0.08,-1.1 m -0.17,2.4 c -0.03,0.3 -0.05,0.6 -0.07,0.9 0.02,-0.3 0.04,-0.6 0.07,-0.9 m -0.18,2.3 c -0.02,0.3 -0.03,0.5 -0.05,0.8 0.02,-0.3 0.03,-0.5 0.05,-0.8 m -0.17,2.4 c -0.01,0.2 -0.02,0.4 -0.04,0.5 0.02,-0.1 0.03,-0.3 0.04,-0.5 m -0.16,2.3 c -0.03,0.4 -0.05,0.7 -0.07,1 0.02,-0.3 0.04,-0.6 0.07,-1 m -0.17,2.4 c -0.03,0.4 -0.06,0.8 -0.09,1.3 0.03,-0.5 0.06,-0.9 0.09,-1.3 m -0.15,2.3 c -0.04,0.5 -0.07,1 -0.1,1.5 0.03,-0.5 0.06,-1 0.1,-1.5 m -0.16,2.4 c -0.03,0.5 -0.07,1 -0.1,1.6 0.03,-0.6 0.07,-1.1 0.1,-1.6 m -0.15,2.3 c -0.03,0.5 -0.06,1 -0.09,1.5 0.03,-0.5 0.06,-1 0.09,-1.5 m -0.15,2.3 c -0.02,0.4 -0.04,0.7 -0.06,1 0.02,-0.3 0.04,-0.6 0.06,-1 m -0.14,2.4 c -0.01,0.1 -0.02,0.3 -0.02,0.4 0,-0.1 0.01,-0.3 0.02,-0.4 m -0.14,2.4 c -0.03,0.4 -0.05,0.7 -0.07,1.1 0.02,-0.4 0.04,-0.7 0.07,-1.1 m -0.14,2.3 c -0.02,0.4 -0.04,0.8 -0.06,1.1 0.02,-0.4 0.04,-0.7 0.06,-1.1 m -0.13,2.4 c -0.02,0.3 -0.04,0.6 -0.05,0.9 0.01,-0.3 0.03,-0.6 0.05,-0.9 m -0.13,2.3 c -0.01,0.3 -0.03,0.6 -0.04,0.8 0.01,-0.2 0.03,-0.5 0.04,-0.8 m -0.13,2.4 c 0,0 0,0.1 -0.01,0.2 0.01,-0.1 0.01,-0.2 0.01,-0.2 m -0.12,2.3 c -0.01,0.3 -0.02,0.6 -0.04,0.9 0.02,-0.3 0.03,-0.6 0.04,-0.9 m -0.34,7.1 c -0.01,0.3 -0.02,0.5 -0.03,0.7 0.01,-0.2 0.02,-0.4 0.03,-0.7 m -0.11,2.4 c -0.01,0.3 -0.02,0.5 -0.03,0.8 0.01,-0.3 0.02,-0.5 0.03,-0.8 m -0.1,2.4 c -0.01,0.1 -0.01,0.2 -0.02,0.3 0.01,-0.1 0.01,-0.2 0.02,-0.3 m -0.1,2.3 c -0.01,0.3 -0.02,0.6 -0.03,0.8 0.01,-0.2 0.02,-0.5 0.03,-0.8 m -0.1,2.4 c -0.01,0.3 -0.02,0.6 -0.04,1 0.02,-0.4 0.03,-0.7 0.04,-1 m -0.09,2.3 c -0.01,0.3 -0.02,0.7 -0.03,1 0.01,-0.3 0.02,-0.6 0.03,-1 m -0.09,2.4 c -0.01,0.2 -0.02,0.6 -0.03,0.8 0.02,-0.3 0.02,-0.5 0.03,-0.8 m -0.08,2.4 c -0.01,0.3 -0.03,0.7 -0.04,1.1 0.01,-0.4 0.03,-0.8 0.04,-1.1 m -0.08,2.3 c -0.02,0.5 -0.03,1 -0.05,1.4 0.02,-0.4 0.03,-0.9 0.05,-1.4 m -0.08,2.4 c -0.01,0.5 -0.03,1.1 -0.05,1.6 0.02,-0.6 0.03,-1 0.05,-1.6 m -0.07,2.4 c -0.09,2.9 -0.17,5.8 -0.24,8.7 0.07,-2.9 0.15,-5.8 0.24,-8.7 m -0.26,9.5 c -0.03,1.2 -0.06,2.4 -0.08,3.6 0.03,-1.2 0.05,-2.4 0.08,-3.6 m -0.12,5.3 c -0.16,8.2 -0.26,16.5 -0.29,24.7 0.03,-8.2 0.13,-16.5 0.29,-24.7"
         style="fill:#f3c680;fill-opacity:1;fill-rule:nonzero;stroke:none"
         transform="matrix(0.13333333,0,0,-0.13333333,0,2666.6667)" />
      <path
         id="path153"
         d="m 7634.62,14674.8 c -717.61,0.4 -1317.24,514.8 -1449.94,1194.2 v 0 c -0.15,0.8 -0.29,1.5 -0.44,2.3 h -0.01 c -0.14,0.7 -0.28,1.5 -0.43,2.2 l -0.02,0.1 c -0.28,1.5 -0.56,3 -0.84,4.4 -0.01,0.1 -0.01,0.1 -0.02,0.2 -0.28,1.4 -0.55,2.9 -0.83,4.4 v 0 c -0.28,1.5 -0.55,3 -0.83,4.5 l -0.02,0.1 c -0.13,0.7 -0.26,1.5 -0.39,2.2 -0.01,0 -0.04,0.2 -0.04,0.2 -0.12,0.7 -0.25,1.4 -0.37,2.1 h -0.01 c -0.13,0.7 -0.26,1.5 -0.4,2.2 l -0.01,0.1 c -0.26,1.5 -0.53,3 -0.79,4.5 l -0.02,0.1 c -0.12,0.7 -0.25,1.4 -0.37,2.1 l -0.01,0.1 c -0.13,0.8 -0.25,1.5 -0.38,2.2 v 0 c -0.13,0.8 -0.26,1.5 -0.39,2.3 -0.01,0 -0.02,0.1 -0.03,0.1 -0.12,0.8 -0.23,1.5 -0.35,2.2 l -0.02,0.1 c -0.12,0.7 -0.24,1.4 -0.36,2.2 -0.02,0 -0.02,0 -0.03,0.1 -0.25,1.5 -0.48,2.9 -0.72,4.4 h -0.01 c -0.12,0.8 -0.24,1.5 -0.36,2.3 l -0.01,0.1 c -0.25,1.5 -0.48,3 -0.72,4.5 h -0.01 c -0.24,1.5 -0.47,3 -0.71,4.5 -0.03,0.2 -0.05,0.4 -0.08,0.6 -0.09,0.6 -0.18,1.2 -0.27,1.7 -0.02,0.2 -0.03,0.2 -0.05,0.3 -0.1,0.7 -0.2,1.4 -0.3,2 -0.02,0.1 -0.01,0.1 -0.02,0.2 -0.11,0.7 -0.22,1.4 -0.32,2.1 -0.04,0.2 -0.07,0.4 -0.1,0.7 -0.09,0.5 -0.16,1 -0.25,1.6 -0.03,0.2 -0.06,0.4 -0.1,0.7 -0.07,0.5 -0.16,1.1 -0.24,1.6 -0.02,0.1 -0.04,0.3 -0.06,0.4 -0.09,0.7 -0.18,1.3 -0.27,1.9 -0.04,0.2 -0.06,0.4 -0.09,0.6 -0.08,0.6 -0.16,1.1 -0.24,1.7 -0.02,0.1 -0.04,0.3 -0.06,0.4 -0.09,0.6 -0.18,1.3 -0.27,1.9 -0.03,0.2 -0.05,0.4 -0.09,0.6 -0.08,0.6 -0.15,1.1 -0.24,1.7 -0.02,0.2 -0.04,0.3 -0.07,0.5 -0.08,0.6 -0.16,1.2 -0.25,1.8 -0.03,0.2 -0.05,0.4 -0.08,0.6 -0.08,0.6 -0.15,1.1 -0.23,1.7 -0.02,0.1 -0.04,0.2 -0.06,0.4 -0.08,0.6 -0.17,1.3 -0.26,1.9 0,0 -0.01,0.1 -0.02,0.2 -0.1,0.7 -0.19,1.4 -0.29,2.1 -0.01,0.1 -0.01,0.1 -0.03,0.2 -0.09,0.7 -0.18,1.4 -0.27,2.1 -0.02,0.1 -0.03,0.2 -0.04,0.3 -0.09,0.7 -0.18,1.3 -0.27,2 -0.01,0.1 -0.02,0.2 -0.03,0.3 -0.09,0.6 -0.18,1.3 -0.27,2 -0.02,0.2 -0.04,0.4 -0.07,0.6 -0.07,0.6 -0.15,1.2 -0.22,1.7 -0.03,0.2 -0.04,0.3 -0.07,0.5 -0.08,0.7 -0.15,1.2 -0.22,1.8 -0.03,0.3 -0.06,0.5 -0.09,0.7 -0.07,0.5 -0.14,1.1 -0.2,1.6 -0.03,0.2 -0.04,0.4 -0.07,0.6 -0.08,0.6 -0.14,1.1 -0.22,1.8 -0.03,0.2 -0.04,0.3 -0.07,0.6 -0.07,0.5 -0.14,1.1 -0.21,1.7 -0.01,0.1 -0.03,0.2 -0.04,0.3 -0.08,0.7 -0.16,1.3 -0.24,2 -0.02,0.1 -0.02,0.2 -0.04,0.3 -0.08,0.7 -0.15,1.3 -0.23,2 -0.02,0.1 -0.03,0.2 -0.04,0.3 -0.08,0.7 -0.16,1.3 -0.24,2 -0.01,0.2 -0.03,0.3 -0.04,0.4 -0.08,0.7 -0.15,1.3 -0.22,1.9 -0.03,0.3 -0.05,0.4 -0.08,0.7 -0.06,0.6 -0.12,1.1 -0.19,1.6 -0.02,0.2 -0.03,0.3 -0.05,0.5 -0.07,0.7 -0.14,1.2 -0.21,1.9 -0.01,0.1 -0.02,0.2 -0.04,0.3 -0.07,0.7 -0.14,1.3 -0.21,2 -0.03,0.2 -0.05,0.4 -0.08,0.6 -0.06,0.6 -0.11,1.1 -0.18,1.7 -0.02,0.2 -0.05,0.5 -0.07,0.7 -0.06,0.6 -0.12,1.1 -0.17,1.6 -0.03,0.3 -0.05,0.4 -0.08,0.7 -0.06,0.6 -0.11,1.1 -0.17,1.7 -0.02,0.1 -0.03,0.2 -0.04,0.4 -0.07,0.6 -0.14,1.2 -0.2,1.9 -0.03,0.2 -0.06,0.6 -0.09,0.9 -0.05,0.4 -0.1,0.9 -0.15,1.4 -0.03,0.2 -0.05,0.4 -0.07,0.7 -0.05,0.5 -0.11,1.1 -0.17,1.6 -0.02,0.2 -0.03,0.4 -0.05,0.6 -0.06,0.5 -0.12,1.2 -0.18,1.8 -0.01,0.1 -0.03,0.2 -0.04,0.4 -0.06,0.6 -0.13,1.3 -0.19,1.9 -0.02,0.3 -0.04,0.5 -0.07,0.8 -0.05,0.5 -0.1,1 -0.15,1.5 -0.02,0.3 -0.05,0.5 -0.07,0.7 -0.05,0.6 -0.1,1.1 -0.15,1.6 -0.02,0.2 -0.03,0.4 -0.04,0.5 -0.06,0.6 -0.12,1.2 -0.18,1.9 -0.02,0.2 -0.03,0.3 -0.05,0.5 -0.05,0.6 -0.11,1.2 -0.16,1.8 -0.03,0.3 -0.05,0.5 -0.07,0.8 -0.05,0.5 -0.09,1 -0.14,1.5 -0.05,0.6 -0.09,1 -0.13,1.5 -0.03,0.3 -0.05,0.6 -0.08,0.8 -0.04,0.6 -0.09,1.1 -0.13,1.6 -0.02,0.3 -0.05,0.6 -0.07,0.8 -0.05,0.6 -0.1,1.2 -0.15,1.8 -0.01,0.1 -0.03,0.3 -0.05,0.5 -0.03,0.5 -0.07,0.9 -0.11,1.3 -0.02,0.4 -0.06,0.7 -0.08,1.1 -0.03,0.3 -0.05,0.5 -0.07,0.8 -0.04,0.5 -0.09,1 -0.12,1.5 -0.03,0.3 -0.05,0.5 -0.07,0.8 -0.04,0.6 -0.08,1 -0.12,1.6 -0.02,0.2 -0.03,0.3 -0.05,0.5 -0.04,0.6 -0.09,1.2 -0.14,1.8 -0.03,0.4 -0.06,0.8 -0.09,1.2 -0.03,0.4 -0.06,0.7 -0.09,1.1 -0.03,0.4 -0.05,0.7 -0.08,1.1 -0.03,0.5 -0.06,0.8 -0.09,1.3 -0.03,0.3 -0.05,0.6 -0.07,0.9 -0.04,0.5 -0.07,0.9 -0.11,1.4 -0.02,0.3 -0.03,0.5 -0.05,0.8 -0.04,0.5 -0.08,1 -0.12,1.6 -0.01,0.2 -0.02,0.4 -0.04,0.5 -0.04,0.6 -0.08,1.2 -0.12,1.8 -0.03,0.4 -0.05,0.7 -0.07,1 -0.03,0.5 -0.07,0.9 -0.1,1.4 -0.03,0.4 -0.06,0.8 -0.09,1.3 -0.02,0.3 -0.04,0.7 -0.06,1 -0.04,0.5 -0.07,1 -0.1,1.5 -0.02,0.3 -0.04,0.5 -0.06,0.9 -0.03,0.5 -0.07,1 -0.1,1.6 -0.02,0.2 -0.03,0.5 -0.05,0.7 -0.03,0.5 -0.06,1 -0.09,1.5 -0.02,0.3 -0.04,0.6 -0.06,0.8 -0.02,0.4 -0.04,0.7 -0.06,1 -0.02,0.5 -0.06,1 -0.08,1.4 -0.01,0.1 -0.02,0.3 -0.02,0.4 -0.04,0.6 -0.08,1.3 -0.12,2 -0.03,0.4 -0.05,0.7 -0.07,1.1 -0.02,0.4 -0.05,0.8 -0.07,1.2 -0.02,0.4 -0.04,0.7 -0.06,1.1 -0.03,0.5 -0.05,0.8 -0.07,1.3 -0.02,0.3 -0.04,0.6 -0.05,0.9 -0.03,0.5 -0.05,0.9 -0.08,1.4 -0.01,0.3 -0.03,0.6 -0.04,0.8 -0.03,0.5 -0.06,1.1 -0.09,1.6 0,0 0,0.1 -0.01,0.2 -0.03,0.7 -0.07,1.4 -0.11,2.1 -0.01,0.3 -0.02,0.6 -0.04,0.9 -0.1,2 -0.21,4.2 -0.3,6.2 -0.01,0.3 -0.02,0.5 -0.03,0.7 -0.03,0.6 -0.05,1.1 -0.08,1.7 -0.01,0.3 -0.02,0.5 -0.03,0.8 -0.03,0.5 -0.05,1.1 -0.07,1.6 -0.01,0.1 -0.01,0.2 -0.02,0.3 -0.03,0.7 -0.05,1.3 -0.08,2 -0.01,0.3 -0.02,0.6 -0.03,0.8 -0.02,0.5 -0.04,1 -0.07,1.6 -0.01,0.3 -0.02,0.6 -0.04,1 -0.01,0.4 -0.03,0.9 -0.05,1.3 -0.01,0.4 -0.02,0.7 -0.03,1 -0.02,0.5 -0.04,0.9 -0.06,1.4 -0.01,0.3 -0.01,0.5 -0.03,0.8 -0.01,0.6 -0.03,1 -0.05,1.6 -0.01,0.3 -0.03,0.7 -0.04,1.1 -0.01,0.4 -0.03,0.8 -0.04,1.2 -0.02,0.5 -0.03,1 -0.05,1.4 -0.01,0.3 -0.02,0.7 -0.03,1 -0.02,0.6 -0.03,1 -0.05,1.6 -0.01,0.3 -0.01,0.5 -0.02,0.8 -0.09,2.9 -0.17,5.8 -0.24,8.7 -0.01,0.3 -0.01,0.5 -0.02,0.8 -0.03,1.2 -0.05,2.4 -0.08,3.6 -0.01,0.6 -0.02,1.1 -0.04,1.7 -0.16,8.2 -0.26,16.5 -0.29,24.7 -0.01,1.9 -0.01,3.8 -0.01,5.7 v 0 h 137.95 c 0,-739.9 599.57,-1339.7 1339.34,-1340.1 v -138"
         style="fill:#306f37;fill-opacity:1;fill-rule:nonzero;stroke:none"
         transform="matrix(0.13333333,0,0,-0.13333333,0,2666.6667)" />
      <path
         id="path154"
         d="m 7634.62,14812.8 c -739.77,0.4 -1339.34,600.2 -1339.34,1340.1 h 1339.34 v -185.1 c -6.08,-11.1 -45.2,-83.8 -45.2,-107.2 0,-25.2 20.16,-45.6 45.2,-46 V 15631 c -6.08,-11.2 -45.2,-83.9 -45.2,-107.3 0,-25.1 20.16,-45.6 45.2,-46 v -189.8 c -6.08,-11.1 -45.2,-83.8 -45.2,-107.3 0,-25.1 20.16,-45.5 45.2,-45.9 v -321.9 m -347.4,476.6 c 0,0 -46,-83.4 -46,-108.8 0,-25.4 20.59,-45.9 46,-45.9 25.4,0 46,20.5 46,45.9 0,25.4 -46,108.8 -46,108.8 m 0,343 c 0,0 -46,-83.3 -46,-108.7 0,-25.4 20.59,-46 46,-46 25.4,0 46,20.6 46,46 0,25.4 -46,108.7 -46,108.7 m -348.18,0 c 0,0 -46,-83.3 -46,-108.7 0,-25.4 20.59,-46 46,-46 25.41,0 46,20.6 46,46 0,25.4 -46,108.7 -46,108.7 m 348.18,336.9 c 0,0 -46,-83.4 -46,-108.7 0,-25.4 20.59,-46.1 46,-46.1 25.4,0 46,20.7 46,46.1 0,25.3 -46,108.7 -46,108.7 m -348.18,0 c 0,0 -46,-83.4 -46,-108.7 0,-25.4 20.59,-46.1 46,-46.1 25.41,0 46,20.7 46,46.1 0,25.3 -46,108.7 -46,108.7 m -348.2,0 c 0,0 -46,-83.4 -46,-108.7 0,-25.4 20.6,-46.1 46,-46.1 25.4,0 46.01,20.7 46.01,46.1 0,25.3 -46.01,108.7 -46.01,108.7"
         style="fill:#ec402d;fill-opacity:1;fill-rule:nonzero;stroke:none"
         transform="matrix(0.13333333,0,0,-0.13333333,0,2666.6667)" />
      <path
         id="path155"
         d="m 6590.84,15814.5 c -25.4,0 -46,20.7 -46,46.1 0,25.3 46,108.7 46,108.7 0,0 46.01,-83.4 46.01,-108.7 0,-25.4 -20.61,-46.1 -46.01,-46.1"
         style="fill:#5a3627;fill-opacity:1;fill-rule:nonzero;stroke:none"
         transform="matrix(0.13333333,0,0,-0.13333333,0,2666.6667)" />
      <path
         id="path156"
         d="m 6939.04,15814.5 c -25.41,0 -46,20.7 -46,46.1 0,25.3 46,108.7 46,108.7 0,0 46,-83.4 46,-108.7 0,-25.4 -20.59,-46.1 -46,-46.1"
         style="fill:#5a3627;fill-opacity:1;fill-rule:nonzero;stroke:none"
         transform="matrix(0.13333333,0,0,-0.13333333,0,2666.6667)" />
      <path
         id="path157"
         d="m 7287.22,15814.5 c -25.41,0 -46,20.7 -46,46.1 0,25.3 46,108.7 46,108.7 0,0 46,-83.4 46,-108.7 0,-25.4 -20.6,-46.1 -46,-46.1"
         style="fill:#5a3627;fill-opacity:1;fill-rule:nonzero;stroke:none"
         transform="matrix(0.13333333,0,0,-0.13333333,0,2666.6667)" />
      <path
         id="path158"
         d="m 7634.62,15814.6 c -25.04,0.4 -45.2,20.8 -45.2,46 0,23.4 39.12,96.1 45.2,107.2 v -153.2"
         style="fill:#5a3627;fill-opacity:1;fill-rule:nonzero;stroke:none"
         transform="matrix(0.13333333,0,0,-0.13333333,0,2666.6667)" />
      <path
         id="path159"
         d="m 6939.04,15477.7 c -25.41,0 -46,20.6 -46,46 0,25.4 46,108.7 46,108.7 0,0 46,-83.3 46,-108.7 0,-25.4 -20.59,-46 -46,-46"
         style="fill:#5a3627;fill-opacity:1;fill-rule:nonzero;stroke:none"
         transform="matrix(0.13333333,0,0,-0.13333333,0,2666.6667)" />
      <path
         id="path160"
         d="m 7287.22,15477.7 c -25.41,0 -46,20.6 -46,46 0,25.4 46,108.7 46,108.7 0,0 46,-83.3 46,-108.7 0,-25.4 -20.6,-46 -46,-46"
         style="fill:#5a3627;fill-opacity:1;fill-rule:nonzero;stroke:none"
         transform="matrix(0.13333333,0,0,-0.13333333,0,2666.6667)" />
      <path
         id="path161"
         d="m 7634.62,15477.7 c -25.04,0.4 -45.2,20.9 -45.2,46 0,23.4 39.12,96.1 45.2,107.3 v -153.3"
         style="fill:#5a3627;fill-opacity:1;fill-rule:nonzero;stroke:none"
         transform="matrix(0.13333333,0,0,-0.13333333,0,2666.6667)" />
      <path
         id="path162"
         d="m 7287.22,15134.7 c -25.41,0 -46,20.5 -46,45.9 0,25.4 46,108.8 46,108.8 0,0 46,-83.4 46,-108.8 0,-25.4 -20.6,-45.9 -46,-45.9"
         style="fill:#5a3627;fill-opacity:1;fill-rule:nonzero;stroke:none"
         transform="matrix(0.13333333,0,0,-0.13333333,0,2666.6667)" />
      <path
         id="path163"
         d="m 7634.62,15134.7 c -25.04,0.4 -45.2,20.8 -45.2,45.9 0,23.5 39.12,96.2 45.2,107.3 v -153.2"
         style="fill:#5a3627;fill-opacity:1;fill-rule:nonzero;stroke:none"
         transform="matrix(0.13333333,0,0,-0.13333333,0,2666.6667)" />
    </g>
  </g>
</svg>
